<svg xmlns="http://www.w3.org/2000/svg" width="16" height="16" viewBox="0 0 16 16">
    <g fill="none" fill-rule="evenodd">
        <path d="M0 0h16v16H0z"/>
        <g fill="#000" fill-opacity=".5" fill-rule="nonzero">
            <path d="M10.208 5.797a.375.375 0 0 0-.375.375v7.082a.375.375 0 0 0 .75 0V6.172a.375.375 0 0 0-.375-.375zM5.787 5.797a.375.375 0 0 0-.375.375v7.082a.375.375 0 0 0 .75 0V6.172a.375.375 0 0 0-.375-.375z"/>
            <path d="M2.564 4.763v9.232c0 .546.2 1.058.55 1.426.348.369.832.578 1.339.579h7.09c.506 0 .99-.21 1.338-.579.35-.368.55-.88.55-1.426V4.763a1.431 1.431 0 0 0-.368-2.815h-1.918V1.48A1.472 1.472 0 0 0 9.66 0H6.334A1.472 1.472 0 0 0 4.85 1.48v.468H2.93a1.432 1.432 0 0 0-.367 2.815zm8.978 10.488h-7.09c-.64 0-1.138-.55-1.138-1.256V4.796h9.367v9.2c0 .704-.498 1.255-1.139 1.255zM5.6 1.48a.721.721 0 0 1 .735-.732H9.66a.722.722 0 0 1 .734.731v.468H5.6V1.48zM2.931 2.697h10.132a.674.674 0 1 1 0 1.349H2.931a.674.674 0 1 1 0-1.35z"/>
            <path d="M7.997 5.797a.375.375 0 0 0-.374.375v7.082a.375.375 0 0 0 .75 0V6.172a.375.375 0 0 0-.376-.375z"/>
        </g>
    </g>
</svg>
