<svg xmlns="http://www.w3.org/2000/svg" width="30" height="30" viewBox="0 0 30 30">
    <g fill="none" fill-rule="evenodd">
        <path d="M0 0h30v30H0z"/>
        <path fill="#FFF" fill-rule="nonzero" d="M15 4c3.101.084 5.699 1.152 7.773 3.227C24.848 9.3 25.916 11.878 26 15c-.084 3.101-1.152 5.699-3.227 7.773C20.7 24.848 18.122 25.916 15 26c-3.101-.084-5.699-1.152-7.773-3.227C5.152 20.7 4.084 18.122 4 15c.084-3.101 1.152-5.699 3.227-7.773C9.3 5.152 11.899 4.084 15 4zm0 20.429c2.661-.063 4.882-.985 6.663-2.766 1.78-1.781 2.703-4.002 2.766-6.663-.063-2.661-.985-4.882-2.766-6.663C19.882 6.557 17.66 5.634 15 5.571c-2.661.063-4.882.985-6.663 2.766C6.557 10.118 5.634 12.34 5.571 15c.063 2.661.985 4.882 2.766 6.663 1.781 1.78 4.002 2.703 6.663 2.766zm1.173-4.317c-.02.336-.125.608-.356.818-.23.209-.503.335-.817.335-.314 0-.608-.105-.817-.335a1.195 1.195 0 0 1-.335-.818c0-.314.104-.607.335-.817.23-.21.503-.335.817-.335.314 0 .608.105.817.335.21.23.356.482.356.817zM15 8.714c.23 0 .419.084.566.23.146.147.23.336.23.566v7.082c0 .23-.084.42-.23.566a.774.774 0 0 1-.566.23.774.774 0 0 1-.566-.23.774.774 0 0 1-.23-.566V9.51c0-.23.084-.419.23-.565a.774.774 0 0 1 .566-.23z"/>
    </g>
</svg>
