<svg xmlns="http://www.w3.org/2000/svg" width="30" height="30" viewBox="0 0 30 30">
    <g fill="#FFF" fill-rule="nonzero" stroke="#FFF" stroke-width=".3">
        <path d="M23.272 3.75H6.81a.56.56 0 0 0-.56.56v21.37a.56.56 0 0 0 .939.412l1.947-1.796a.557.557 0 0 1 .752-.006l1.277 1.14c.64.571 1.607.569 2.243-.007l1.258-1.135a.558.558 0 0 1 .75 0l1.258 1.135a1.676 1.676 0 0 0 2.243.006l1.276-1.139a.557.557 0 0 1 .752.006l1.947 1.796a.56.56 0 0 0 .94-.411V4.31a.56.56 0 0 0-.56-.56zm-.56 20.653l-1.008-.93a1.674 1.674 0 0 0-2.256-.018l-1.277 1.14a.56.56 0 0 1-.748-.003l-1.257-1.135a1.675 1.675 0 0 0-2.25 0l-1.258 1.135a.56.56 0 0 1-.747.002l-1.277-1.139a1.673 1.673 0 0 0-2.256.018l-1.008.93V4.87h15.342v19.533z"/>
        <path d="M11.3 11.12h7.183a.56.56 0 1 0 0-1.12h-7.184a.56.56 0 1 0 0 1.12zM11.3 16.02h7.183a.56.56 0 1 0 0-1.12h-7.184a.56.56 0 1 0 0 1.12z"/>
    </g>
</svg>
