<svg xmlns="http://www.w3.org/2000/svg" width="24" height="24" viewBox="0 0 24 24">
    <g fill="none" fill-rule="evenodd">
        <path d="M0 0h24v24H0z"/>
        <path fill="#000" fill-opacity=".3" fill-rule="nonzero" stroke="#FFF" stroke-width=".4" d="M20.726 19.982l-4.437-4.615a7.503 7.503 0 0 0 1.766-4.84c0-4.15-3.377-7.527-7.527-7.527C6.377 3 3 6.377 3 10.528c0 4.15 3.377 7.527 7.528 7.527 1.558 0 3.043-.47 4.312-1.362l4.471 4.65a.974.974 0 0 0 .708.301.983.983 0 0 0 .708-1.662zM10.528 4.964a5.57 5.57 0 0 1 5.563 5.564 5.57 5.57 0 0 1-5.563 5.563 5.57 5.57 0 0 1-5.564-5.563 5.57 5.57 0 0 1 5.564-5.564z"/>
    </g>
</svg>
